<mxfile host="app.diagrams.net" modified="2023-11-04T00:34:07.916Z" agent="Mozilla/5.0 (Windows NT 10.0; Win64; x64) AppleWebKit/537.36 (KHTML, like Gecko) Chrome/119.0.0.0 Safari/537.36" etag="sr1ouhyBufb0eLP6rGm4" version="22.0.8" type="github">
  <diagram name="PÃ¡gina-1" id="6EjjrTVFEm6qe1ew8q8Y">
    <mxGraphModel dx="880" dy="1647" grid="1" gridSize="10" guides="1" tooltips="1" connect="1" arrows="1" fold="1" page="1" pageScale="1" pageWidth="827" pageHeight="1169" math="0" shadow="0">
      <root>
        <mxCell id="0" />
        <mxCell id="1" parent="0" />
        <mxCell id="fCK78SXwBXorTyQpff8O-11" value="&lt;font style=&quot;font-size: 28px;&quot;&gt;Gestion de Productos&lt;/font&gt;" style="text;html=1;strokeColor=none;fillColor=none;align=center;verticalAlign=middle;whiteSpace=wrap;rounded=0;" vertex="1" parent="1">
          <mxGeometry x="210" y="-30" width="316" height="100" as="geometry" />
        </mxCell>
        <mxCell id="fCK78SXwBXorTyQpff8O-12" value="" style="whiteSpace=wrap;html=1;aspect=fixed;" vertex="1" parent="1">
          <mxGeometry x="70" y="50" width="650" height="650" as="geometry" />
        </mxCell>
        <mxCell id="fCK78SXwBXorTyQpff8O-13" value="Admin" style="shape=umlActor;verticalLabelPosition=bottom;verticalAlign=top;html=1;" vertex="1" parent="1">
          <mxGeometry x="100" y="170" width="30" height="60" as="geometry" />
        </mxCell>
        <mxCell id="fCK78SXwBXorTyQpff8O-14" value="Registrar Producto" style="ellipse;whiteSpace=wrap;html=1;" vertex="1" parent="1">
          <mxGeometry x="210" y="80" width="140" height="70" as="geometry" />
        </mxCell>
        <mxCell id="fCK78SXwBXorTyQpff8O-15" value="Editar producto" style="ellipse;whiteSpace=wrap;html=1;" vertex="1" parent="1">
          <mxGeometry x="210" y="170" width="140" height="70" as="geometry" />
        </mxCell>
        <mxCell id="fCK78SXwBXorTyQpff8O-16" value="Eliminar Producto" style="ellipse;whiteSpace=wrap;html=1;" vertex="1" parent="1">
          <mxGeometry x="210" y="270" width="140" height="70" as="geometry" />
        </mxCell>
        <mxCell id="fCK78SXwBXorTyQpff8O-17" value="Baja Logica" style="ellipse;whiteSpace=wrap;html=1;" vertex="1" parent="1">
          <mxGeometry x="310" y="350" width="90" height="40" as="geometry" />
        </mxCell>
        <mxCell id="fCK78SXwBXorTyQpff8O-18" value="Baja Fisica" style="ellipse;whiteSpace=wrap;html=1;" vertex="1" parent="1">
          <mxGeometry x="170" y="350" width="90" height="40" as="geometry" />
        </mxCell>
        <mxCell id="fCK78SXwBXorTyQpff8O-19" value="" style="endArrow=none;html=1;rounded=0;entryX=0.021;entryY=0.686;entryDx=0;entryDy=0;entryPerimeter=0;" edge="1" parent="1" source="fCK78SXwBXorTyQpff8O-13" target="fCK78SXwBXorTyQpff8O-14">
          <mxGeometry width="50" height="50" relative="1" as="geometry">
            <mxPoint x="460" y="300" as="sourcePoint" />
            <mxPoint x="510" y="250" as="targetPoint" />
          </mxGeometry>
        </mxCell>
        <mxCell id="fCK78SXwBXorTyQpff8O-20" value="" style="endArrow=none;html=1;rounded=0;entryX=0;entryY=0.5;entryDx=0;entryDy=0;exitX=0.5;exitY=0.5;exitDx=0;exitDy=0;exitPerimeter=0;" edge="1" parent="1" source="fCK78SXwBXorTyQpff8O-13" target="fCK78SXwBXorTyQpff8O-15">
          <mxGeometry width="50" height="50" relative="1" as="geometry">
            <mxPoint x="460" y="300" as="sourcePoint" />
            <mxPoint x="510" y="250" as="targetPoint" />
          </mxGeometry>
        </mxCell>
        <mxCell id="fCK78SXwBXorTyQpff8O-21" value="" style="endArrow=none;html=1;rounded=0;entryX=0.867;entryY=0.833;entryDx=0;entryDy=0;entryPerimeter=0;exitX=0.071;exitY=0.286;exitDx=0;exitDy=0;exitPerimeter=0;" edge="1" parent="1" source="fCK78SXwBXorTyQpff8O-16" target="fCK78SXwBXorTyQpff8O-13">
          <mxGeometry width="50" height="50" relative="1" as="geometry">
            <mxPoint x="390" y="280" as="sourcePoint" />
            <mxPoint x="440" y="230" as="targetPoint" />
          </mxGeometry>
        </mxCell>
        <mxCell id="fCK78SXwBXorTyQpff8O-22" value="" style="endArrow=none;html=1;rounded=0;exitX=0.5;exitY=0;exitDx=0;exitDy=0;" edge="1" parent="1" source="fCK78SXwBXorTyQpff8O-18" target="fCK78SXwBXorTyQpff8O-16">
          <mxGeometry width="50" height="50" relative="1" as="geometry">
            <mxPoint x="390" y="280" as="sourcePoint" />
            <mxPoint x="440" y="230" as="targetPoint" />
          </mxGeometry>
        </mxCell>
        <mxCell id="fCK78SXwBXorTyQpff8O-23" value="" style="endArrow=none;html=1;rounded=0;" edge="1" parent="1" source="fCK78SXwBXorTyQpff8O-17" target="fCK78SXwBXorTyQpff8O-16">
          <mxGeometry width="50" height="50" relative="1" as="geometry">
            <mxPoint x="390" y="280" as="sourcePoint" />
            <mxPoint x="440" y="230" as="targetPoint" />
          </mxGeometry>
        </mxCell>
        <mxCell id="fCK78SXwBXorTyQpff8O-24" value="Buscar Producto" style="ellipse;whiteSpace=wrap;html=1;" vertex="1" parent="1">
          <mxGeometry x="450" y="190" width="140" height="60" as="geometry" />
        </mxCell>
        <mxCell id="fCK78SXwBXorTyQpff8O-25" value="&amp;lt;&amp;lt;include&amp;gt;&amp;gt;" style="endArrow=open;endSize=12;dashed=1;html=1;rounded=0;" edge="1" parent="1" source="fCK78SXwBXorTyQpff8O-15" target="fCK78SXwBXorTyQpff8O-24">
          <mxGeometry width="160" relative="1" as="geometry">
            <mxPoint x="330" y="260" as="sourcePoint" />
            <mxPoint x="490" y="260" as="targetPoint" />
          </mxGeometry>
        </mxCell>
        <mxCell id="fCK78SXwBXorTyQpff8O-27" value="&amp;lt;&amp;lt;include&amp;gt;&amp;gt;" style="endArrow=open;endSize=12;dashed=1;html=1;rounded=0;exitX=1;exitY=0.5;exitDx=0;exitDy=0;" edge="1" parent="1" source="fCK78SXwBXorTyQpff8O-16">
          <mxGeometry width="160" relative="1" as="geometry">
            <mxPoint x="360" y="219" as="sourcePoint" />
            <mxPoint x="461" y="226" as="targetPoint" />
          </mxGeometry>
        </mxCell>
      </root>
    </mxGraphModel>
  </diagram>
</mxfile>
